HIERARCHY
ROOT reference
{
  OFFSET 0 0 0
  CHANNELS 6 Xposition Yposition Zposition Zrotation Xrotation Yrotation
  JOINT Hips
  {
    OFFSET 349.773 89.4622 219.413
    CHANNELS 3 Zrotation Xrotation Yrotation
    JOINT RightUpLeg
    {
      OFFSET -9.25229 -1.56476 -0.00486621
      CHANNELS 3 Zrotation Xrotation Yrotation
      JOINT RightLeg
      {
        OFFSET 0.0546168 -41.8841 0.068862
        CHANNELS 3 Zrotation Xrotation Yrotation
        JOINT RightFoot
        {
          OFFSET -1.63893 -40.8901 3.53979
          CHANNELS 3 Zrotation Xrotation Yrotation
          End Site
          {
            OFFSET 0 -7.69 17.5
          }
        }
      }
    }
    JOINT LeftUpLeg
    {
      OFFSET 9.30241 -1.63853 -0.0284428
      CHANNELS 3 Zrotation Xrotation Yrotation
      JOINT LeftLeg
      {
        OFFSET 0.0539686 -41.842 -0.0517406
        CHANNELS 3 Zrotation Xrotation Yrotation
        JOINT LeftFoot
        {
          OFFSET 1.12518 -42.5382 -2.5849
          CHANNELS 3 Zrotation Xrotation Yrotation
          End Site
          {
            OFFSET 0 -7.69 17.5
          }
        }
      }
    }
    JOINT Spine
    {
      OFFSET 0.0144198 14.3187 0.0981135
      CHANNELS 3 Zrotation Xrotation Yrotation
      JOINT Spine1
      {
        OFFSET 0.0112165 9.7169 0.0514987
        CHANNELS 3 Zrotation Xrotation Yrotation
        JOINT Spine2
        {
          OFFSET 0.0255827 10.1205 -0.00638435
          CHANNELS 3 Zrotation Xrotation Yrotation
          JOINT Spine3
          {
            OFFSET -0.00190646 9.72552 0.024249
            CHANNELS 3 Zrotation Xrotation Yrotation
            JOINT Neck
            {
              OFFSET -0.136438 10.3681 0.0553958
              CHANNELS 3 Zrotation Xrotation Yrotation
              JOINT Head
              {
                OFFSET 0.0264476 9.5071 0.170402
                CHANNELS 3 Zrotation Xrotation Yrotation
                End Site
                {
                  OFFSET 0 15.95 0
                }
              }
            }
            JOINT RightShoulder
            {
              OFFSET -3.1747 6.92483 0.00547946
              CHANNELS 3 Zrotation Xrotation Yrotation
              JOINT RightArm
              {
                OFFSET -12.7755 -0.0136287 0.0362428
                CHANNELS 3 Zrotation Xrotation Yrotation
                JOINT RightForeArm
                {
                  OFFSET -26.5642 -0.108975 -0.0233747
                  CHANNELS 3 Zrotation Xrotation Yrotation
                  JOINT RightHand
                  {
                    OFFSET -25.905 -0.185223 0.00356295
                    CHANNELS 3 Zrotation Xrotation Yrotation
                    JOINT RightHandThumb1
                    {
                      OFFSET -2.48905 0.190105 3.12053
                      CHANNELS 3 Zrotation Xrotation Yrotation
                      JOINT RightHandThumb2
                      {
                        OFFSET -3.68274 0 0
                        CHANNELS 3 Zrotation Xrotation Yrotation
                        JOINT RightHandThumb3
                        {
                          OFFSET -2.55832 0 0
                          CHANNELS 3 Zrotation Xrotation Yrotation
                          End Site
                          {
                            OFFSET -2.194 0 0
                          }
                        }
                      }
                    }
                    JOINT RightInHandIndex
                    {
                      OFFSET -3.22368 0.508421 1.97842
                      CHANNELS 3 Zrotation Xrotation Yrotation
                      JOINT RightHandIndex1
                      {
                        OFFSET -5.21684 -0.091368 0.999158
                        CHANNELS 3 Zrotation Xrotation Yrotation
                        JOINT RightHandIndex2
                        {
                          OFFSET -3.61937 0 0
                          CHANNELS 3 Zrotation Xrotation Yrotation
                          JOINT RightHandIndex3
                          {
                            OFFSET -2.0521 0 0
                            CHANNELS 3 Zrotation Xrotation Yrotation
                            End Site
                            {
                              OFFSET -1.805 0 0
                            }
                          }
                        }
                      }
                    }
                    JOINT RightInHandMiddle
                    {
                      OFFSET -3.38211 0.517263 0.756737
                      CHANNELS 3 Zrotation Xrotation Yrotation
                      JOINT RightHandMiddle1
                      {
                        OFFSET -5.17411 -0.084 0.313895
                        CHANNELS 3 Zrotation Xrotation Yrotation
                        JOINT RightHandMiddle2
                        {
                          OFFSET -3.94947 0 0
                          CHANNELS 3 Zrotation Xrotation Yrotation
                          JOINT RightHandMiddle3
                          {
                            OFFSET -2.47579 0 0
                            CHANNELS 3 Zrotation Xrotation Yrotation
                            End Site
                            {
                              OFFSET -1.975 0 0
                            }
                          }
                        }
                      }
                    }
                    JOINT RightInHandRing
                    {
                      OFFSET -3.36516 0.537895 -0.128947
                      CHANNELS 3 Zrotation Xrotation Yrotation
                      JOINT RightHandRing1
                      {
                        OFFSET -4.63474 -0.022105 -0.478947
                        CHANNELS 3 Zrotation Xrotation Yrotation
                        JOINT RightHandRing2
                        {
                          OFFSET -3.44238 0 0
                          CHANNELS 3 Zrotation Xrotation Yrotation
                          JOINT RightHandRing3
                          {
                            OFFSET -2.3881 0 0
                            CHANNELS 3 Zrotation Xrotation Yrotation
                            End Site
                            {
                              OFFSET -1.857 0 0
                            }
                          }
                        }
                      }
                    }
                    JOINT RightInHandPinky
                    {
                      OFFSET -3.16105 0.469368 -1.20179
                      CHANNELS 3 Zrotation Xrotation Yrotation
                      JOINT RightHandPinky1
                      {
                        OFFSET -4.14105 -0.022105 -1.09053
                        CHANNELS 3 Zrotation Xrotation Yrotation
                        JOINT RightHandPinky2
                        {
                          OFFSET -2.75653 0 0
                          CHANNELS 3 Zrotation Xrotation Yrotation
                          JOINT RightHandPinky3
                          {
                            OFFSET -1.74189 0 0
                            CHANNELS 3 Zrotation Xrotation Yrotation
                            End Site
                            {
                              OFFSET -1.645 0 0
                            }
                          }
                        }
                      }
                    }
                  }
                }
              }
            }
            JOINT LeftShoulder
            {
              OFFSET 3.23079 6.93624 -0.032633
              CHANNELS 3 Zrotation Xrotation Yrotation
              JOINT LeftArm
              {
                OFFSET 12.8235 -0.00564763 -0.0637926
                CHANNELS 3 Zrotation Xrotation Yrotation
                JOINT LeftForeArm
                {
                  OFFSET 26.4641 -0.00020372 -0.0407631
                  CHANNELS 3 Zrotation Xrotation Yrotation
                  JOINT LeftHand
                  {
                    OFFSET 25.9912 -0.0207868 -0.0178714
                    CHANNELS 3 Zrotation Xrotation Yrotation
                    JOINT LeftHandThumb1
                    {
                      OFFSET 2.48905 0.190105 3.12053
                      CHANNELS 3 Zrotation Xrotation Yrotation
                      JOINT LeftHandThumb2
                      {
                        OFFSET 3.68274 0 0
                        CHANNELS 3 Zrotation Xrotation Yrotation
                        JOINT LeftHandThumb3
                        {
                          OFFSET 2.55832 0 0
                          CHANNELS 3 Zrotation Xrotation Yrotation
                          End Site
                          {
                            OFFSET 2.194 0 0
                          }
                        }
                      }
                    }
                    JOINT LeftInHandIndex
                    {
                      OFFSET 3.22368 0.508421 1.97842
                      CHANNELS 3 Zrotation Xrotation Yrotation
                      JOINT LeftHandIndex1
                      {
                        OFFSET 5.21684 -0.091368 0.999158
                        CHANNELS 3 Zrotation Xrotation Yrotation
                        JOINT LeftHandIndex2
                        {
                          OFFSET 3.61937 0 0
                          CHANNELS 3 Zrotation Xrotation Yrotation
                          JOINT LeftHandIndex3
                          {
                            OFFSET 2.0521 0 0
                            CHANNELS 3 Zrotation Xrotation Yrotation
                            End Site
                            {
                              OFFSET 1.805 0 0
                            }
                          }
                        }
                      }
                    }
                    JOINT LeftInHandMiddle
                    {
                      OFFSET 3.38211 0.517263 0.756737
                      CHANNELS 3 Zrotation Xrotation Yrotation
                      JOINT LeftHandMiddle1
                      {
                        OFFSET 5.17411 -0.084 0.313895
                        CHANNELS 3 Zrotation Xrotation Yrotation
                        JOINT LeftHandMiddle2
                        {
                          OFFSET 3.94947 0 0
                          CHANNELS 3 Zrotation Xrotation Yrotation
                          JOINT LeftHandMiddle3
                          {
                            OFFSET 2.47579 0 0
                            CHANNELS 3 Zrotation Xrotation Yrotation
                            End Site
                            {
                              OFFSET 1.975 0 0
                            }
                          }
                        }
                      }
                    }
                    JOINT LeftInHandRing
                    {
                      OFFSET 3.36516 0.537895 -0.128947
                      CHANNELS 3 Zrotation Xrotation Yrotation
                      JOINT LeftHandRing1
                      {
                        OFFSET 4.63474 -0.022105 -0.478947
                        CHANNELS 3 Zrotation Xrotation Yrotation
                        JOINT LeftHandRing2
                        {
                          OFFSET 3.44238 0 0
                          CHANNELS 3 Zrotation Xrotation Yrotation
                          JOINT LeftHandRing3
                          {
                            OFFSET 2.3881 0 0
                            CHANNELS 3 Zrotation Xrotation Yrotation
                            End Site
                            {
                              OFFSET 1.857 0 0
                            }
                          }
                        }
                      }
                    }
                    JOINT LeftInHandPinky
                    {
                      OFFSET 3.16105 0.469368 -1.20179
                      CHANNELS 3 Zrotation Xrotation Yrotation
                      JOINT LeftHandPinky1
                      {
                        OFFSET 4.14105 -0.022105 -1.09053
                        CHANNELS 3 Zrotation Xrotation Yrotation
                        JOINT LeftHandPinky2
                        {
                          OFFSET 2.75653 0 0
                          CHANNELS 3 Zrotation Xrotation Yrotation
                          JOINT LeftHandPinky3
                          {
                            OFFSET 1.74189 0 0
                            CHANNELS 3 Zrotation Xrotation Yrotation
                            End Site
                            {
                              OFFSET 1.645 0 0
                            }
                          }
                        }
                      }
                    }
                  }
                }
              }
            }
          }
        }
      }
    }
  }
}
MOTION
Frames:	5
Frame Time:	0.00833333
0 0 0 0 0 -0 23.8684 6.32027 -111.561 25.5448 -46.1901 23.3839 -9.38781 13.5096 -2.55522 11.1585 13.3196 34.6534 34.1802 -26.3643 20.4712 -19.3537 40.3284 26.4991 -6.83003 -24.3912 -6.21925 -5.98554 2.08105 -14.6396 -1.5493 0.108853 -3.73274 -2.55649 -0.00266272 -6.06837 -0.68736 -0.470402 2.76303 -1.06006 -6.07208 43.8177 -11.034 7.45587 26.51 8.90388 3.8934 -1.74074 47.9499 -51.7113 3.087 51.2865 12.5858 118.428 5.42413 -18.7735 10.4406 28.184 10.7294 19.1592 3.72279e-15 -6.36111e-15 -10 1.61481e-15 0 -10 -2.38542e-15 3.18055e-15 -0 19.9818 0.871897 2.3964 24 0 -0 20 -6.36111e-15 9.54166e-15 -2.38542e-15 3.18055e-15 -0 20 -3.18055e-15 -4.77083e-15 24 -3.18055e-15 1.27222e-14 20 3.18055e-15 3.18055e-15 -2.38542e-15 3.18055e-15 -0 19.9748 -1.02565 -2.81938 24 -6.36111e-15 7.95139e-15 20 6.36111e-15 -6.36111e-15 -2.38542e-15 3.18055e-15 -0 19.7815 -3.00948 -8.30515 24 -3.18055e-15 -3.18055e-15 20 6.36111e-15 -6.36111e-15 4.64986 -19.1651 -49.1358 -9.22726 35.3179 -114.855 34.1216 -5.07074 -26.9475 -32.514 -14.8731 -7.89125 -28.184 10.7294 -19.1592 -8.79198e-15 6.36111e-15 10 -6.2846e-16 1.27222e-14 10 -7.95139e-16 -6.36111e-15 -3.18055e-15 -19.9818 0.871897 -2.3964 -24 9.54166e-15 9.54166e-15 -20 3.18055e-15 -3.57812e-15 -7.95139e-16 -6.36111e-15 -3.18055e-15 -20 3.18055e-15 6.36111e-15 -24 -3.18055e-15 1.90833e-14 -20 3.18055e-15 -1.64619e-15 -7.95139e-16 -6.36111e-15 -3.18055e-15 -19.9748 -1.02565 2.81938 -24 -9.54166e-15 -1.59028e-15 -20 0 8.24956e-15 -7.95139e-16 -6.36111e-15 -3.18055e-15 -19.7815 -3.00948 8.30515 -24 -3.18055e-15 2.54444e-14 -20 -9.54166e-15 2.90226e-14 
0 0 0 0 0 -0 23.8761 6.51123 -111.636 25.7984 -46.1154 23.4009 -9.46112 13.4968 -2.52753 11.1952 13.351 34.6958 34.372 -26.2627 20.4279 -19.4253 40.3093 26.567 -6.79892 -24.4184 -6.19502 -5.98103 2.03598 -14.8769 -1.548 0.0928681 -3.79171 -2.55423 -0.0305283 -6.15945 -0.678673 -0.464903 2.77014 -1.02294 -5.99125 43.9723 -10.9158 7.44782 26.6231 9.04679 4.05959 -1.91987 47.8789 -51.9453 2.87329 50.7445 12.7774 119.029 5.37609 -18.6161 10.4554 28.184 10.7294 19.1592 -3.29726e-15 -9.54166e-15 -10 -2.42221e-15 0 -10 -3.97569e-15 -3.18055e-15 1.19271e-14 19.9818 0.871897 2.3964 24 -3.18055e-15 -3.18055e-15 20 -3.18055e-15 -1.27222e-14 -3.97569e-15 -3.18055e-15 1.19271e-14 20 -3.18055e-15 5.56597e-15 24 3.18055e-15 1.27222e-14 20 0 -6.36111e-15 -3.97569e-15 -3.18055e-15 1.19271e-14 19.9748 -1.02565 -2.81938 24 -9.54166e-15 2.22639e-14 20 3.18055e-15 6.36111e-15 -3.97569e-15 -3.18055e-15 1.19271e-14 19.7815 -3.00948 -8.30515 24 3.18055e-15 1.59028e-15 20 -3.18055e-15 3.18055e-15 4.68452 -19.0294 -49.0526 -8.92845 35.0962 -115.098 34.2271 -5.12862 -27.3345 -32.7046 -14.7932 -8.08228 -28.184 10.7294 -19.1592 -5.06919e-15 1.27222e-14 10 3.68897e-15 1.11319e-14 10 -3.18055e-15 -1.59028e-15 -0 -19.9818 0.871897 -2.3964 -24 -3.18055e-15 6.36111e-15 -20 9.54166e-15 -7.05686e-15 -3.18055e-15 -1.59028e-15 -0 -20 3.18055e-15 -3.18055e-15 -24 -6.36111e-15 1.90833e-14 -20 0 3.32964e-15 -3.18055e-15 -1.59028e-15 -0 -19.9748 -1.02565 2.81938 -24 -9.54166e-15 -3.18055e-15 -20 -6.36111e-15 1.88845e-14 -3.18055e-15 -1.59028e-15 -0 -19.7815 -3.00948 8.30515 -24 0 2.06736e-14 -20 -1.59028e-14 2.22639e-14 
0 0 0 0 0 -0 23.8802 6.49574 -111.78 25.9515 -46.0675 23.5629 -9.52672 13.487 -2.50508 11.2291 13.3744 34.7301 34.4095 -26.179 20.5275 -19.4693 40.2968 26.6189 -6.77078 -24.4321 -6.20047 -6.04424 1.95115 -15.1051 -1.56272 0.0642071 -3.84758 -2.57849 -0.0798637 -6.24464 -0.671803 -0.460866 2.77762 -0.985343 -5.92785 44.1614 -10.831 7.46768 26.753 9.09548 4.15766 -2.00127 47.7773 -52.1345 2.59361 50.202 12.8829 119.635 5.35658 -18.4706 10.4738 28.184 10.7294 19.1592 -5.96607e-15 -6.36111e-15 -10 4.93175e-16 -6.36111e-15 -10 -5.56597e-15 0 3.18055e-15 19.9818 0.871897 2.3964 24 0 -0 20 0 3.18055e-15 -5.56597e-15 0 3.18055e-15 20 -3.18055e-15 3.18055e-15 24 0 1.27222e-14 20 9.54166e-15 -6.36111e-15 -5.56597e-15 0 3.18055e-15 19.9748 -1.02565 -2.81938 24 1.27222e-14 1.59028e-14 20 0 3.18055e-15 -5.56597e-15 0 3.18055e-15 19.7815 -3.00948 -8.30515 24 9.54166e-15 -7.95139e-15 20 6.36111e-15 3.18055e-15 4.66105 -18.9426 -48.914 -8.64265 34.9292 -115.33 34.3034 -5.18783 -27.6727 -32.9199 -14.6763 -8.26606 -28.184 10.7294 -19.1592 -3.79044e-15 3.18055e-15 10 6.42542e-15 4.77083e-15 10 -2.38542e-15 -4.77083e-15 -0 -19.9818 0.871897 -2.3964 -24 3.18055e-15 -0 -20 0 -3.47873e-15 -2.38542e-15 -4.77083e-15 -0 -20 6.36111e-15 -9.54166e-15 -24 0 1.43125e-14 -20 -6.36111e-15 2.98177e-15 -2.38542e-15 -4.77083e-15 -0 -19.9748 -1.02565 2.81938 -24 -9.54166e-15 -7.95139e-15 -20 -6.36111e-15 1.51076e-14 -2.38542e-15 -4.77083e-15 -0 -19.7815 -3.00948 8.30515 -24 -6.36111e-15 1.90833e-14 -20 -9.54166e-15 1.47101e-14 
0 0 0 0 0 -0 23.9065 6.61161 -111.848 26.1194 -46.0223 23.6348 -9.56412 13.4803 -2.53084 11.2584 13.3951 34.7618 34.5478 -26.1274 20.5754 -19.5033 40.2998 26.6546 -6.74285 -24.4512 -6.21975 -6.07621 1.89706 -15.3449 -1.57031 0.0439264 -3.90716 -2.59086 -0.115451 -6.33589 -0.660516 -0.452289 2.78496 -0.949177 -5.80857 44.2894 -10.6716 7.44871 26.8679 9.19002 4.26821 -2.08987 48.1334 -51.6657 3.06368 49.2455 12.198 120.363 5.36467 -18.3882 10.5565 28.184 10.7294 19.1592 -1.18928e-15 -1.59028e-14 -10 6.21265e-15 3.18055e-15 -10 -4.77083e-15 0 4.77083e-15 19.9818 0.871897 2.3964 24 9.54166e-15 -6.36111e-15 20 0 9.54166e-15 -4.77083e-15 0 4.77083e-15 20 0 -7.95139e-15 24 0 3.18055e-15 20 3.18055e-15 -1.59028e-14 -4.77083e-15 0 4.77083e-15 19.9748 -1.02565 -2.81938 24 -3.18055e-15 1.59028e-14 20 6.36111e-15 -0 -4.77083e-15 0 4.77083e-15 19.7815 -3.00948 -8.30515 24 0 -3.18055e-15 20 0 6.36111e-15 4.72734 -18.8428 -48.8594 -8.43376 34.793 -115.473 34.4035 -5.27144 -27.9488 -33.195 -14.5091 -8.47677 -28.184 10.7294 -19.1592 -3.10633e-15 1.59028e-15 10 -2.94921e-15 -1.59028e-15 10 -2.38542e-15 -4.77083e-15 -3.18055e-15 -19.9818 0.871897 -2.3964 -24 -3.18055e-15 -6.36111e-15 -20 0 -3.77691e-15 -2.38542e-15 -4.77083e-15 -3.18055e-15 -20 6.36111e-15 -6.36111e-15 -24 -3.18055e-15 9.54166e-15 -20 0 6.03808e-15 -2.38542e-15 -4.77083e-15 -3.18055e-15 -19.9748 -1.02565 2.81938 -24 -9.54166e-15 -7.95139e-15 -20 0 1.43125e-14 -2.38542e-15 -4.77083e-15 -3.18055e-15 -19.7815 -3.00948 8.30515 -24 -9.54166e-15 1.59028e-14 -20 -1.27222e-14 2.74323e-14 
0 0 0 0 0 -0 23.9094 6.4897 -112.034 26.2039 -45.9839 23.9034 -9.60469 13.4806 -2.55223 11.2875 13.4132 34.7957 34.5217 -26.0623 20.7749 -19.5404 40.2785 26.7164 -6.70347 -24.4544 -6.25822 -6.20093 1.78043 -15.5239 -1.59946 0.00560398 -3.94979 -2.63901 -0.180902 -6.39939 -0.650822 -0.443972 2.79249 -0.916707 -5.69175 44.4302 -10.5425 7.47001 26.9963 9.20521 4.35728 -2.14706 48.4229 -51.2767 3.41758 48.3178 11.6109 120.972 5.35345 -18.3296 10.7043 28.184 10.7294 19.1592 -9.7565e-15 -9.54166e-15 -10 1.8614e-15 -3.18055e-15 -10 -1.11319e-14 -3.18055e-15 7.95139e-16 19.9818 0.871897 2.3964 24 9.54166e-15 -6.36111e-15 20 -3.18055e-15 -3.18055e-15 -1.11319e-14 -3.18055e-15 7.95139e-16 20 9.54166e-15 7.95139e-16 24 0 -0 20 0 -1.90833e-14 -1.11319e-14 -3.18055e-15 7.95139e-16 19.9748 -1.02565 -2.81938 24 -9.54166e-15 1.27222e-14 20 3.18055e-15 -1.27222e-14 -1.11319e-14 -3.18055e-15 7.95139e-16 19.7815 -3.00948 -8.30515 24 6.36111e-15 -1.43125e-14 20 -9.54166e-15 -0 4.74924 -18.7415 -48.8034 -8.22447 34.6522 -115.579 34.5267 -5.38748 -28.2358 -33.4958 -14.3612 -8.65925 -28.184 10.7294 -19.1592 -2.25419e-15 4.77083e-15 10 8.04023e-15 4.77083e-15 10 -3.53113e-31 -3.18055e-15 -6.36111e-15 -19.9818 0.871897 -2.3964 -24 0 7.95139e-16 -20 -3.18055e-15 -9.0447e-15 -3.53113e-31 -3.18055e-15 -6.36111e-15 -20 3.18055e-15 -9.54166e-15 -24 -3.18055e-15 1.43125e-14 -20 -3.18055e-15 2.2239e-15 -3.53113e-31 -3.18055e-15 -6.36111e-15 -19.9748 -1.02565 2.81938 -24 3.18055e-15 -1.43125e-14 -20 -6.36111e-15 6.16232e-15 -3.53113e-31 -3.18055e-15 -6.36111e-15 -19.7815 -3.00948 8.30515 -24 -3.18055e-15 2.38542e-14 -20 0 1.66979e-14 
